<svg xmlns="http://www.w3.org/2000/svg" width="156.625" height="30.526" viewBox="0 0 156.625 30.526"><script xmlns="" src="chrome-extension://hoklmmgfnpapgjgcpechhaamimifchmp/frame_ant/frame_ant.js"/>
  <g id="Group_6343" data-name="Group 6343" transform="translate(-16.36 -16.314)">
    <path id="Path_3975" data-name="Path 3975" d="M666.971,154.955A11.228,11.228,0,1,1,678.2,143.727a11.243,11.243,0,0,1-11.227,11.228m0-17.545a6.318,6.318,0,1,0,6.313,6.318,6.323,6.323,0,0,0-6.313-6.318" transform="translate(-535.089 -108.12)" fill="#ed1c24"/>
    <path id="Path_3976" data-name="Path 3976" d="M788.548,154.955a11.228,11.228,0,1,1,11.227-11.228,11.243,11.243,0,0,1-11.227,11.228m0-17.545a6.318,6.318,0,1,0,6.313,6.318,6.323,6.323,0,0,0-6.313-6.318" transform="translate(-634.296 -108.12)" fill="#ed1c24"/>
    <path id="Path_3977" data-name="Path 3977" d="M221.823,154.955a11.228,11.228,0,1,1,11.221-11.228,11.244,11.244,0,0,1-11.221,11.228m0-17.545a6.318,6.318,0,1,0,6.311,6.318,6.325,6.325,0,0,0-6.311-6.318" transform="translate(-171.841 -108.12)" fill="#ed1c24"/>
    <path id="Path_3978" data-name="Path 3978" d="M100.152,154.955a11.228,11.228,0,1,1,11.223-11.228,11.244,11.244,0,0,1-11.223,11.228m0-17.545a6.318,6.318,0,1,0,6.315,6.318,6.326,6.326,0,0,0-6.315-6.318" transform="translate(-72.556 -108.12)" fill="#ed1c24"/>
    <path id="Path_3979" data-name="Path 3979" d="M556.261,91.728V90.522s0-.807,0-.807v.312a1.358,1.358,0,0,0-1.358-1.358H552.7a1.358,1.358,0,0,0-1.358,1.358V89.77s-.012.806-.005.8l-.011,8.1-.452-.279a11.221,11.221,0,1,0,5.367,9.566l.021-14.672c0-.008,0-.821,0-.829ZM545.017,114.28a6.321,6.321,0,0,1-6.31-6.416,6.4,6.4,0,0,1,6.217-6.22,6.318,6.318,0,1,1,.093,12.636" transform="translate(-435.569 -72.355)" fill="#ed1c24"/>
    <path id="Path_3980" data-name="Path 3980" d="M498.382,223.793l-2.932-1.669c-.49-.278-.838-1.118-.452-1.5l.913-.583a.916.916,0,0,1,1.053-.075l3.015,1.663a.837.837,0,0,1,.184,1.352l-.8.72a.843.843,0,0,1-.981.1" transform="translate(-403.788 -179.384)" fill="#ed1c24"/>
    <path id="Path_3981" data-name="Path 3981" d="M429.655,149.041a7.025,7.025,0,0,1-3.474,1l-.28.007a9.249,9.249,0,0,1-1.684-.152,6.283,6.283,0,0,1-4.38-3.261l-.338-.819,16.947.008a10.487,10.487,0,0,0,.206-2.125,11.23,11.23,0,1,0-12.488,11.153l.359.029.262.018c.326.022.66.034,1.024.034.132,0,.255,0,.39-.012a11.442,11.442,0,0,0,7.841-2.947l-4.384-2.932m-10.079-7.719a6.294,6.294,0,0,1,11.681.015l.028.069-11.739-.013Z" transform="translate(-337.985 -108.091)" fill="#ed1c24"/>
    <path id="Path_3982" data-name="Path 3982" d="M342.8,132.237a9.734,9.734,0,0,0-5.3,2.29v-.816a1.165,1.165,0,0,0-1.163-1.164h-2.476a1.193,1.193,0,0,0-1.191,1.191v13.4h0v6.34a1.165,1.165,0,0,0,1.163,1.164h2.476a1.193,1.193,0,0,0,1.191-1.191l.105-10.263a6.03,6.03,0,0,1,5.55-6.133,6.307,6.307,0,0,1,5.456,2.158l3.126-3.446a10.444,10.444,0,0,0-8.939-3.531" transform="translate(-271.462 -107.869)" fill="#ed1c24"/>
    <path id="Path_3983" data-name="Path 3983" d="M904.007,105.854a4.079,4.079,0,1,1-4.078-4.078,4.078,4.078,0,0,1,4.078,4.078" transform="translate(-731.021 -83.05)" fill="#ed1c24"/>
  </g>
</svg>